# xmcd
#
# Track frame offsets:
#	150
#	16358
#	32807
#	55232
#	77094
#	105553
#	128572
#	149611
#	170175
#	180399
#	199966
#	227498
#	245952
#	280685
#
# Disc length: 4179 seconds
#
# Revision: 1
# Processed by: cddbd v1.5.2PL0 Copyright (c) Steve Scherf et al.
# Submitted via: audiograbber 1.83.01
#
DISCID=c510510e
DTITLE=Peggy - Perfect Selection
DYEAR=2002
DGENRE=Blues
TTITLE0=Deep Alem Blues (Trad.)
TTITLE1=Bye Bye Baby (Trad.)
TTITLE2=Elle Rit Aux Eclats
TTITLE3=I Got My Mojo Working
TTITLE4=Ich Schaff Das Schon
TTITLE5=Solo Le Pido A Dios
TTITLE6=Helpless
TTITLE7=Wie Weit Ist Es...
TTITLE8=Mercedes Benz
TTITLE9=Shake Your Boogie
TTITLE10=Bring EIt On Home To Me
TTITLE11=Help Me Make It Trough The Night
TTITLE12=Magnolia
TTITLE13=Knocking On Heaven's Door
EXTD=
EXTT0=
EXTT1=
EXTT2=
EXTT3=
EXTT4=
EXTT5=
EXTT6=
EXTT7=
EXTT8=
EXTT9=
EXTT10=
EXTT11=
EXTT12=
EXTT13=
PLAYORDER=
